<?xml version="1.0" encoding="UTF-8" standalone="no"?>
<svg xmlns="http://www.w3.org/2000/svg" xmlns:xlink="http://www.w3.org/1999/xlink" contentStyleType="text/css" height="392px" preserveAspectRatio="none" style="width:2795px;height:392px;background:#FFFFFF;" version="1.1" viewBox="0 0 2795 392" width="2795px" zoomAndPan="magnify"><defs/><g><!--MD5=[4aa9db986e83b69347f8468953d128d9]
class integral_1d--><g id="elem_integral_1d"><rect codeLine="1" fill="#F1F1F1" height="96.8906" id="integral_1d" rx="2.5" ry="2.5" style="stroke:#181818;stroke-width:0.5;" width="1214" x="7" y="15"/><ellipse cx="569.25" cy="31" fill="#ADD1B2" rx="11" ry="11" style="stroke:#181818;stroke-width:1.0;"/><path d="M571.5938,26.6719 C570.6563,26.2344 570.0625,26.0938 569.1875,26.0938 C566.5625,26.0938 564.5625,28.1719 564.5625,30.8906 L564.5625,32.0156 C564.5625,34.5938 566.6719,36.4844 569.5625,36.4844 C570.7813,36.4844 571.9375,36.1875 572.6875,35.6406 C573.2656,35.2344 573.5938,34.7813 573.5938,34.3906 C573.5938,33.9375 573.2031,33.5469 572.7344,33.5469 C572.5156,33.5469 572.3125,33.625 572.125,33.8125 C571.6719,34.2969 571.6719,34.2969 571.4844,34.3906 C571.0625,34.6563 570.375,34.7813 569.6094,34.7813 C567.5625,34.7813 566.2656,33.6875 566.2656,31.9844 L566.2656,30.8906 C566.2656,29.1094 567.5156,27.7969 569.25,27.7969 C569.8281,27.7969 570.4375,27.9531 570.9063,28.2031 C571.3906,28.4844 571.5625,28.7031 571.6563,29.1094 C571.7188,29.5156 571.75,29.6406 571.8906,29.7656 C572.0313,29.9063 572.2656,30.0156 572.4844,30.0156 C572.75,30.0156 573.0156,29.875 573.1875,29.6563 C573.2969,29.5 573.3281,29.3125 573.3281,28.8906 L573.3281,27.4688 C573.3281,27.0313 573.3125,26.9063 573.2188,26.75 C573.0625,26.4844 572.7813,26.3438 572.4844,26.3438 C572.1875,26.3438 571.9844,26.4375 571.7656,26.75 L571.5938,26.6719 Z " fill="#000000"/><text fill="#000000" font-family="sans-serif" font-size="14" lengthAdjust="spacing" textLength="81" x="589.75" y="35.8467">integral_1d</text><line style="stroke:#181818;stroke-width:0.5;" x1="8" x2="1220" y1="47" y2="47"/><text fill="#000000" font-family="sans-serif" font-size="14" lengthAdjust="spacing" textLength="207" x="13" y="63.9951">nodes : std::vector&lt;double&gt;</text><text fill="#000000" font-family="sans-serif" font-size="14" lengthAdjust="spacing" textLength="220" x="13" y="80.292">weights : std::vector&lt;double&gt;</text><line style="stroke:#181818;stroke-width:0.5;" x1="8" x2="1220" y1="87.5938" y2="87.5938"/><text fill="#000000" font-family="sans-serif" font-size="14" lengthAdjust="spacing" textLength="1202" x="13" y="104.5889">auto operator()(const arma::mat&amp; A, const arma::vec&amp; b, const arma::vec&amp; r, const arma::vec&amp; theta, double q, double s, double y, double left_split, double right_split)</text></g><!--MD5=[5cb9a2a4a5270226e378c01568611ed3]
class integral_2d--><g id="elem_integral_2d"><rect codeLine="7" fill="#F1F1F1" height="113.1875" id="integral_2d" rx="2.5" ry="2.5" style="stroke:#181818;stroke-width:0.5;" width="746" x="1256" y="7"/><ellipse cx="1584.75" cy="23" fill="#ADD1B2" rx="11" ry="11" style="stroke:#181818;stroke-width:1.0;"/><path d="M1587.0938,18.6719 C1586.1563,18.2344 1585.5625,18.0938 1584.6875,18.0938 C1582.0625,18.0938 1580.0625,20.1719 1580.0625,22.8906 L1580.0625,24.0156 C1580.0625,26.5938 1582.1719,28.4844 1585.0625,28.4844 C1586.2813,28.4844 1587.4375,28.1875 1588.1875,27.6406 C1588.7656,27.2344 1589.0938,26.7813 1589.0938,26.3906 C1589.0938,25.9375 1588.7031,25.5469 1588.2344,25.5469 C1588.0156,25.5469 1587.8125,25.625 1587.625,25.8125 C1587.1719,26.2969 1587.1719,26.2969 1586.9844,26.3906 C1586.5625,26.6563 1585.875,26.7813 1585.1094,26.7813 C1583.0625,26.7813 1581.7656,25.6875 1581.7656,23.9844 L1581.7656,22.8906 C1581.7656,21.1094 1583.0156,19.7969 1584.75,19.7969 C1585.3281,19.7969 1585.9375,19.9531 1586.4063,20.2031 C1586.8906,20.4844 1587.0625,20.7031 1587.1563,21.1094 C1587.2188,21.5156 1587.25,21.6406 1587.3906,21.7656 C1587.5313,21.9063 1587.7656,22.0156 1587.9844,22.0156 C1588.25,22.0156 1588.5156,21.875 1588.6875,21.6563 C1588.7969,21.5 1588.8281,21.3125 1588.8281,20.8906 L1588.8281,19.4688 C1588.8281,19.0313 1588.8125,18.9063 1588.7188,18.75 C1588.5625,18.4844 1588.2813,18.3438 1587.9844,18.3438 C1587.6875,18.3438 1587.4844,18.4375 1587.2656,18.75 L1587.0938,18.6719 Z " fill="#000000"/><text fill="#000000" font-family="sans-serif" font-size="14" lengthAdjust="spacing" textLength="80" x="1605.25" y="27.8467">integral_2d</text><line style="stroke:#181818;stroke-width:0.5;" x1="1257" x2="2001" y1="39" y2="39"/><text fill="#000000" font-family="sans-serif" font-size="14" lengthAdjust="spacing" textLength="207" x="1262" y="55.9951">nodes : std::vector&lt;double&gt;</text><text fill="#000000" font-family="sans-serif" font-size="14" lengthAdjust="spacing" textLength="220" x="1262" y="72.292">weights : std::vector&lt;double&gt;</text><line style="stroke:#181818;stroke-width:0.5;" x1="1257" x2="2001" y1="79.5938" y2="79.5938"/><text fill="#000000" font-family="sans-serif" font-size="14" lengthAdjust="spacing" textLength="734" x="1262" y="96.5889">auto operator()(const arma::mat&amp; A, const arma::vec&amp; b, const arma::vec&amp; r, const arma::vec&amp; theta)</text><text fill="#000000" font-family="sans-serif" font-size="14" lengthAdjust="spacing" textLength="181" x="1262" y="112.8857">auto partial_integral([...])</text></g><!--MD5=[5bbd3befcf1686b7fd148cc582657d1c]
class configuration--><g id="elem_configuration"><rect codeLine="14" fill="#F1F1F1" height="80.5938" id="configuration" rx="2.5" ry="2.5" style="stroke:#181818;stroke-width:0.5;" width="153" x="537.5" y="180"/><ellipse cx="563.75" cy="196" fill="#ADD1B2" rx="11" ry="11" style="stroke:#181818;stroke-width:1.0;"/><path d="M566.0938,191.6719 C565.1563,191.2344 564.5625,191.0938 563.6875,191.0938 C561.0625,191.0938 559.0625,193.1719 559.0625,195.8906 L559.0625,197.0156 C559.0625,199.5938 561.1719,201.4844 564.0625,201.4844 C565.2813,201.4844 566.4375,201.1875 567.1875,200.6406 C567.7656,200.2344 568.0938,199.7813 568.0938,199.3906 C568.0938,198.9375 567.7031,198.5469 567.2344,198.5469 C567.0156,198.5469 566.8125,198.625 566.625,198.8125 C566.1719,199.2969 566.1719,199.2969 565.9844,199.3906 C565.5625,199.6563 564.875,199.7813 564.1094,199.7813 C562.0625,199.7813 560.7656,198.6875 560.7656,196.9844 L560.7656,195.8906 C560.7656,194.1094 562.0156,192.7969 563.75,192.7969 C564.3281,192.7969 564.9375,192.9531 565.4063,193.2031 C565.8906,193.4844 566.0625,193.7031 566.1563,194.1094 C566.2188,194.5156 566.25,194.6406 566.3906,194.7656 C566.5313,194.9063 566.7656,195.0156 566.9844,195.0156 C567.25,195.0156 567.5156,194.875 567.6875,194.6563 C567.7969,194.5 567.8281,194.3125 567.8281,193.8906 L567.8281,192.4688 C567.8281,192.0313 567.8125,191.9063 567.7188,191.75 C567.5625,191.4844 567.2813,191.3438 566.9844,191.3438 C566.6875,191.3438 566.4844,191.4375 566.2656,191.75 L566.0938,191.6719 Z " fill="#000000"/><text fill="#000000" font-family="sans-serif" font-size="14" lengthAdjust="spacing" textLength="96" x="580.25" y="200.8467">configuration</text><line style="stroke:#181818;stroke-width:0.5;" x1="538.5" x2="689.5" y1="212" y2="212"/><text fill="#000000" font-family="sans-serif" font-size="14" lengthAdjust="spacing" textLength="141" x="543.5" y="228.9951">wavenumber_k : int</text><text fill="#000000" font-family="sans-serif" font-size="14" lengthAdjust="spacing" textLength="131" x="543.5" y="245.292">tolerance : double</text><line style="stroke:#181818;stroke-width:0.5;" x1="538.5" x2="689.5" y1="252.5938" y2="252.5938"/></g><!--MD5=[5b8f6b22c25346f8f5cd6b9b8ace96af]
class configuration_2d--><g id="elem_configuration_2d"><rect codeLine="18" fill="#F1F1F1" height="64.2969" id="configuration_2d" rx="2.5" ry="2.5" style="stroke:#181818;stroke-width:0.5;" width="161" x="1021.5" y="321"/><ellipse cx="1040.55" cy="337" fill="#ADD1B2" rx="11" ry="11" style="stroke:#181818;stroke-width:1.0;"/><path d="M1042.8938,332.6719 C1041.9563,332.2344 1041.3625,332.0938 1040.4875,332.0938 C1037.8625,332.0938 1035.8625,334.1719 1035.8625,336.8906 L1035.8625,338.0156 C1035.8625,340.5938 1037.9719,342.4844 1040.8625,342.4844 C1042.0813,342.4844 1043.2375,342.1875 1043.9875,341.6406 C1044.5656,341.2344 1044.8938,340.7813 1044.8938,340.3906 C1044.8938,339.9375 1044.5031,339.5469 1044.0344,339.5469 C1043.8156,339.5469 1043.6125,339.625 1043.425,339.8125 C1042.9719,340.2969 1042.9719,340.2969 1042.7844,340.3906 C1042.3625,340.6563 1041.675,340.7813 1040.9094,340.7813 C1038.8625,340.7813 1037.5656,339.6875 1037.5656,337.9844 L1037.5656,336.8906 C1037.5656,335.1094 1038.8156,333.7969 1040.55,333.7969 C1041.1281,333.7969 1041.7375,333.9531 1042.2063,334.2031 C1042.6906,334.4844 1042.8625,334.7031 1042.9563,335.1094 C1043.0188,335.5156 1043.05,335.6406 1043.1906,335.7656 C1043.3313,335.9063 1043.5656,336.0156 1043.7844,336.0156 C1044.05,336.0156 1044.3156,335.875 1044.4875,335.6563 C1044.5969,335.5 1044.6281,335.3125 1044.6281,334.8906 L1044.6281,333.4688 C1044.6281,333.0313 1044.6125,332.9063 1044.5188,332.75 C1044.3625,332.4844 1044.0813,332.3438 1043.7844,332.3438 C1043.4875,332.3438 1043.2844,332.4375 1043.0656,332.75 L1042.8938,332.6719 Z " fill="#000000"/><text fill="#000000" font-family="sans-serif" font-size="14" lengthAdjust="spacing" textLength="120" x="1055.45" y="341.8467">configuration_2d</text><line style="stroke:#181818;stroke-width:0.5;" x1="1022.5" x2="1181.5" y1="353" y2="353"/><text fill="#000000" font-family="sans-serif" font-size="14" lengthAdjust="spacing" textLength="149" x="1027.5" y="369.9951">y_resolution : double</text><line style="stroke:#181818;stroke-width:0.5;" x1="1022.5" x2="1181.5" y1="377.2969" y2="377.2969"/></g><!--MD5=[f563a21e696cb16f094f8733a31441fe]
class gsl_integrator_2d--><g id="elem_gsl_integrator_2d"><rect codeLine="23" fill="#F1F1F1" height="64.2969" id="gsl_integrator_2d" rx="2.5" ry="2.5" style="stroke:#181818;stroke-width:0.5;" width="1144" x="1644" y="188.5"/><ellipse cx="2149.25" cy="204.5" fill="#ADD1B2" rx="11" ry="11" style="stroke:#181818;stroke-width:1.0;"/><path d="M2151.5938,200.1719 C2150.6563,199.7344 2150.0625,199.5938 2149.1875,199.5938 C2146.5625,199.5938 2144.5625,201.6719 2144.5625,204.3906 L2144.5625,205.5156 C2144.5625,208.0938 2146.6719,209.9844 2149.5625,209.9844 C2150.7813,209.9844 2151.9375,209.6875 2152.6875,209.1406 C2153.2656,208.7344 2153.5938,208.2813 2153.5938,207.8906 C2153.5938,207.4375 2153.2031,207.0469 2152.7344,207.0469 C2152.5156,207.0469 2152.3125,207.125 2152.125,207.3125 C2151.6719,207.7969 2151.6719,207.7969 2151.4844,207.8906 C2151.0625,208.1563 2150.375,208.2813 2149.6094,208.2813 C2147.5625,208.2813 2146.2656,207.1875 2146.2656,205.4844 L2146.2656,204.3906 C2146.2656,202.6094 2147.5156,201.2969 2149.25,201.2969 C2149.8281,201.2969 2150.4375,201.4531 2150.9063,201.7031 C2151.3906,201.9844 2151.5625,202.2031 2151.6563,202.6094 C2151.7188,203.0156 2151.75,203.1406 2151.8906,203.2656 C2152.0313,203.4063 2152.2656,203.5156 2152.4844,203.5156 C2152.75,203.5156 2153.0156,203.375 2153.1875,203.1563 C2153.2969,203 2153.3281,202.8125 2153.3281,202.3906 L2153.3281,200.9688 C2153.3281,200.5313 2153.3125,200.4063 2153.2188,200.25 C2153.0625,199.9844 2152.7813,199.8438 2152.4844,199.8438 C2152.1875,199.8438 2151.9844,199.9375 2151.7656,200.25 L2151.5938,200.1719 Z " fill="#000000"/><text fill="#000000" font-family="sans-serif" font-size="14" lengthAdjust="spacing" textLength="125" x="2169.75" y="209.3467">gsl_integrator_2d</text><line style="stroke:#181818;stroke-width:0.5;" x1="1645" x2="2787" y1="220.5" y2="220.5"/><line style="stroke:#181818;stroke-width:0.5;" x1="1645" x2="2787" y1="228.5" y2="228.5"/><text fill="#000000" font-family="sans-serif" font-size="14" lengthAdjust="spacing" textLength="1132" x="1650" y="245.4951">auto operator()(integrand_fun integrand, const std::complex&lt;double&gt; x_start, const std::complex&lt;double&gt; x_end, const double y_start, const double y_end)</text></g><!--MD5=[bf0843acf52c65ab18eb92e3ff00875d]
class gsl_integrator--><g id="elem_gsl_integrator"><rect codeLine="27" fill="#F1F1F1" height="64.2969" id="gsl_integrator" rx="2.5" ry="2.5" style="stroke:#181818;stroke-width:0.5;" width="812" x="726" y="188.5"/><ellipse cx="1077.25" cy="204.5" fill="#ADD1B2" rx="11" ry="11" style="stroke:#181818;stroke-width:1.0;"/><path d="M1079.5938,200.1719 C1078.6563,199.7344 1078.0625,199.5938 1077.1875,199.5938 C1074.5625,199.5938 1072.5625,201.6719 1072.5625,204.3906 L1072.5625,205.5156 C1072.5625,208.0938 1074.6719,209.9844 1077.5625,209.9844 C1078.7813,209.9844 1079.9375,209.6875 1080.6875,209.1406 C1081.2656,208.7344 1081.5938,208.2813 1081.5938,207.8906 C1081.5938,207.4375 1081.2031,207.0469 1080.7344,207.0469 C1080.5156,207.0469 1080.3125,207.125 1080.125,207.3125 C1079.6719,207.7969 1079.6719,207.7969 1079.4844,207.8906 C1079.0625,208.1563 1078.375,208.2813 1077.6094,208.2813 C1075.5625,208.2813 1074.2656,207.1875 1074.2656,205.4844 L1074.2656,204.3906 C1074.2656,202.6094 1075.5156,201.2969 1077.25,201.2969 C1077.8281,201.2969 1078.4375,201.4531 1078.9063,201.7031 C1079.3906,201.9844 1079.5625,202.2031 1079.6563,202.6094 C1079.7188,203.0156 1079.75,203.1406 1079.8906,203.2656 C1080.0313,203.4063 1080.2656,203.5156 1080.4844,203.5156 C1080.75,203.5156 1081.0156,203.375 1081.1875,203.1563 C1081.2969,203 1081.3281,202.8125 1081.3281,202.3906 L1081.3281,200.9688 C1081.3281,200.5313 1081.3125,200.4063 1081.2188,200.25 C1081.0625,199.9844 1080.7813,199.8438 1080.4844,199.8438 C1080.1875,199.8438 1079.9844,199.9375 1079.7656,200.25 L1079.5938,200.1719 Z " fill="#000000"/><text fill="#000000" font-family="sans-serif" font-size="14" lengthAdjust="spacing" textLength="101" x="1097.75" y="209.3467">gsl_integrator</text><line style="stroke:#181818;stroke-width:0.5;" x1="727" x2="1537" y1="220.5" y2="220.5"/><line style="stroke:#181818;stroke-width:0.5;" x1="727" x2="1537" y1="228.5" y2="228.5"/><text fill="#000000" font-family="sans-serif" font-size="14" lengthAdjust="spacing" textLength="800" x="732" y="245.4951">auto operator()(integrand_fun integrand, const std::complex&lt;double&gt; start, const std::complex&lt;double&gt; end)</text></g><!--MD5=[86b97c49127b9a60d1bbf33049a39502]
reverse link configuration to configuration_2d--><g id="link_configuration_configuration_2d"><path codeLine="21" d="M709.789,261.092 C827.359,298.1065 945.043,322.9814 1021.3,337.5547 " fill="none" id="configuration-backto-configuration_2d" style="stroke:#181818;stroke-width:1.0;"/><polygon fill="none" points="707.453,267.694,690.545,254.922,711.727,254.362,707.453,267.694" style="stroke:#181818;stroke-width:1.0;"/></g><!--MD5=[7b3242d1fbe4a3fefdabc3c0d474bf02]
link integral_1d to configuration--><g id="link_integral_1d_configuration"><path codeLine="31" d="M614,112.27 C614,132.193 614,155.207 614,174.793 " fill="none" id="integral_1d-to-configuration" style="stroke:#181818;stroke-width:1.0;"/><polygon fill="#181818" points="614,179.958,618,170.958,614,174.958,610,170.958,614,179.958" style="stroke:#181818;stroke-width:1.0;"/></g><!--MD5=[92a9e92127c353219015f7ea3a6b22cc]
link integral_1d to gsl_integrator--><g id="link_integral_1d_gsl_integrator"><path codeLine="32" d="M772.937,112.058 C853.967,136.305 950.438,165.171 1022.97,186.875 " fill="none" id="integral_1d-to-gsl_integrator" style="stroke:#181818;stroke-width:1.0;"/><polygon fill="#181818" points="1028.15,188.425,1020.6686,182.0196,1023.3586,186.996,1018.3822,189.686,1028.15,188.425" style="stroke:#181818;stroke-width:1.0;"/></g><!--MD5=[acdbf91473af7be1bc21804331b98c40]
link integral_2d to configuration_2d--><g id="link_integral_2d_configuration_2d"><path codeLine="33" d="M1622.71,120.353 C1614.67,165.029 1596.39,225.825 1555,261 C1500.64,307.1972 1303.16,333.127 1187.67,344.6527 " fill="none" id="integral_2d-to-configuration_2d" style="stroke:#181818;stroke-width:1.0;"/><polygon fill="#181818" points="1182.57,345.1572,1191.9248,348.2373,1187.5449,344.6573,1191.125,340.2774,1182.57,345.1572" style="stroke:#181818;stroke-width:1.0;"/></g><!--MD5=[a8a259c42145aa696ee3f72fe11f242d]
link integral_2d to gsl_integrator_2d--><g id="link_integral_2d_gsl_integrator_2d"><path codeLine="34" d="M1839.26,120.021 C1924.4,142.501 2019.72,167.671 2093.18,187.068 " fill="none" id="integral_2d-to-gsl_integrator_2d" style="stroke:#181818;stroke-width:1.0;"/><polygon fill="#181818" points="2098.43,188.454,2090.7434,182.2964,2093.5944,187.1822,2088.7086,190.0333,2098.43,188.454" style="stroke:#181818;stroke-width:1.0;"/></g><!--MD5=[aa3b61a1bf49bef196565c11fa7c4cbe]
link integral_2d to gsl_integrator--><g id="link_integral_2d_gsl_integrator"><path codeLine="35" d="M1450.98,120.021 C1379.04,142.456 1298.51,167.57 1236.37,186.951 " fill="none" id="integral_2d-to-gsl_integrator" style="stroke:#181818;stroke-width:1.0;"/><polygon fill="#181818" points="1231.55,188.454,1241.3322,189.5983,1236.324,186.9679,1238.9544,181.9598,1231.55,188.454" style="stroke:#181818;stroke-width:1.0;"/></g><!--MD5=[226d81263bf675348f68dc3e6cd34e18]
@startuml
class integral_1d {
  nodes : std::vector<double>
  weights : std::vector<double>
  auto operator()(const arma::mat& A, const arma::vec& b, const arma::vec& r, const arma::vec& theta, double q, double s, double y, double left_split, double right_split)
}

class integral_2d {
  nodes : std::vector<double>
  weights : std::vector<double>
  auto operator()(const arma::mat& A, const arma::vec& b, const arma::vec& r, const arma::vec& theta)
  auto partial_integral([...])
}

class configuration {
  wavenumber_k : int
  tolerance : double
}
class configuration_2d {
  y_resolution : double
}
configuration <|- - configuration_2d

class gsl_integrator_2d {
  auto operator()(integrand_fun integrand, const std::complex<double> x_start, const std::complex<double> x_end, const double y_start, const double y_end)
}

class gsl_integrator {
  auto operator()(integrand_fun integrand, const std::complex<double> start, const std::complex<double> end)
}

integral_1d - ->configuration
integral_1d - ->gsl_integrator
integral_2d- ->configuration_2d
integral_2d- ->gsl_integrator_2d
integral_2d- ->gsl_integrator
@enduml

PlantUML version 1.2022.10beta1(Unknown compile time)
(GPL source distribution)
Java Runtime: Java(TM) SE Runtime Environment
JVM: Java HotSpot(TM) 64-Bit Server VM
Default Encoding: UTF-8
Language: en
Country: US
--></g></svg>